<mxfile host="app.diagrams.net" modified="2023-08-11T15:47:57.387Z" agent="Mozilla/5.0 (Windows NT 10.0; Win64; x64) AppleWebKit/537.36 (KHTML, like Gecko) Chrome/115.0.0.0 Safari/537.36" etag="6-AYxy6NQoJ9TR4R5I9P" version="21.6.2" type="github">
  <diagram name="Page-1" id="NNF_zsZIewQ2cPXGPwP7">
    <mxGraphModel dx="1114" dy="610" grid="1" gridSize="10" guides="1" tooltips="1" connect="1" arrows="1" fold="1" page="1" pageScale="1" pageWidth="827" pageHeight="1169" math="0" shadow="0">
      <root>
        <mxCell id="0" />
        <mxCell id="1" parent="0" />
        <mxCell id="epag77RVmhsX1mGDB368-1" value="Ethereum&lt;br&gt;smart contract" style="ellipse;shape=cloud;whiteSpace=wrap;html=1;" vertex="1" parent="1">
          <mxGeometry x="370" y="10" width="120" height="80" as="geometry" />
        </mxCell>
        <mxCell id="epag77RVmhsX1mGDB368-3" value="Omni network" style="text;html=1;align=center;verticalAlign=middle;resizable=0;points=[];autosize=1;strokeColor=none;fillColor=none;" vertex="1" parent="1">
          <mxGeometry x="30" y="148" width="100" height="30" as="geometry" />
        </mxCell>
        <mxCell id="epag77RVmhsX1mGDB368-5" value="" style="rounded=0;whiteSpace=wrap;html=1;" vertex="1" parent="1">
          <mxGeometry x="40" y="200" width="410" height="260" as="geometry" />
        </mxCell>
        <mxCell id="epag77RVmhsX1mGDB368-6" value="" style="rounded=0;whiteSpace=wrap;html=1;" vertex="1" parent="1">
          <mxGeometry x="567" y="200" width="260" height="260" as="geometry" />
        </mxCell>
        <mxCell id="epag77RVmhsX1mGDB368-7" value="Cosmos SDK app" style="rounded=0;whiteSpace=wrap;html=1;" vertex="1" parent="1">
          <mxGeometry x="155" y="350" width="180" height="100" as="geometry" />
        </mxCell>
        <mxCell id="epag77RVmhsX1mGDB368-8" value="Observer" style="rounded=0;whiteSpace=wrap;html=1;" vertex="1" parent="1">
          <mxGeometry x="155" y="220" width="180" height="90" as="geometry" />
        </mxCell>
        <mxCell id="epag77RVmhsX1mGDB368-9" value="" style="endArrow=classic;html=1;rounded=0;entryX=0.25;entryY=0;entryDx=0;entryDy=0;exitX=0.25;exitY=1;exitDx=0;exitDy=0;" edge="1" parent="1" source="epag77RVmhsX1mGDB368-8" target="epag77RVmhsX1mGDB368-7">
          <mxGeometry width="50" height="50" relative="1" as="geometry">
            <mxPoint x="360" y="280" as="sourcePoint" />
            <mxPoint x="410" y="230" as="targetPoint" />
          </mxGeometry>
        </mxCell>
        <mxCell id="epag77RVmhsX1mGDB368-10" value="RPC" style="edgeLabel;html=1;align=center;verticalAlign=middle;resizable=0;points=[];" vertex="1" connectable="0" parent="epag77RVmhsX1mGDB368-9">
          <mxGeometry x="-0.2" relative="1" as="geometry">
            <mxPoint as="offset" />
          </mxGeometry>
        </mxCell>
        <mxCell id="epag77RVmhsX1mGDB368-11" value="" style="endArrow=classic;html=1;rounded=0;entryX=0.75;entryY=0;entryDx=0;entryDy=0;exitX=0.75;exitY=1;exitDx=0;exitDy=0;" edge="1" parent="1" source="epag77RVmhsX1mGDB368-8" target="epag77RVmhsX1mGDB368-7">
          <mxGeometry width="50" height="50" relative="1" as="geometry">
            <mxPoint x="360" y="280" as="sourcePoint" />
            <mxPoint x="410" y="230" as="targetPoint" />
          </mxGeometry>
        </mxCell>
        <mxCell id="epag77RVmhsX1mGDB368-12" value="REST API" style="edgeLabel;html=1;align=center;verticalAlign=middle;resizable=0;points=[];" vertex="1" connectable="0" parent="epag77RVmhsX1mGDB368-11">
          <mxGeometry x="-0.15" y="2" relative="1" as="geometry">
            <mxPoint as="offset" />
          </mxGeometry>
        </mxCell>
        <mxCell id="epag77RVmhsX1mGDB368-13" value="" style="endArrow=classic;html=1;rounded=0;entryX=0.55;entryY=0.95;entryDx=0;entryDy=0;entryPerimeter=0;exitX=0.5;exitY=0;exitDx=0;exitDy=0;" edge="1" parent="1" source="epag77RVmhsX1mGDB368-8" target="epag77RVmhsX1mGDB368-1">
          <mxGeometry width="50" height="50" relative="1" as="geometry">
            <mxPoint x="360" y="280" as="sourcePoint" />
            <mxPoint x="410" y="230" as="targetPoint" />
            <Array as="points">
              <mxPoint x="245" y="160" />
              <mxPoint x="436" y="160" />
            </Array>
          </mxGeometry>
        </mxCell>
        <mxCell id="epag77RVmhsX1mGDB368-14" value="Node 1" style="text;html=1;strokeColor=none;fillColor=none;align=center;verticalAlign=middle;whiteSpace=wrap;rounded=0;" vertex="1" parent="1">
          <mxGeometry x="40" y="200" width="60" height="30" as="geometry" />
        </mxCell>
        <mxCell id="epag77RVmhsX1mGDB368-15" value="RPC" style="text;html=1;strokeColor=none;fillColor=none;align=center;verticalAlign=middle;whiteSpace=wrap;rounded=0;" vertex="1" parent="1">
          <mxGeometry x="240" y="130" width="60" height="30" as="geometry" />
        </mxCell>
        <mxCell id="epag77RVmhsX1mGDB368-16" value="" style="endArrow=classic;html=1;rounded=0;entryX=0.667;entryY=0.95;entryDx=0;entryDy=0;entryPerimeter=0;" edge="1" parent="1" target="epag77RVmhsX1mGDB368-1">
          <mxGeometry width="50" height="50" relative="1" as="geometry">
            <mxPoint x="706" y="200" as="sourcePoint" />
            <mxPoint x="410" y="230" as="targetPoint" />
            <Array as="points">
              <mxPoint x="706" y="160" />
              <mxPoint x="450" y="160" />
            </Array>
          </mxGeometry>
        </mxCell>
        <mxCell id="epag77RVmhsX1mGDB368-17" value="Node n" style="text;html=1;strokeColor=none;fillColor=none;align=center;verticalAlign=middle;whiteSpace=wrap;rounded=0;" vertex="1" parent="1">
          <mxGeometry x="567" y="200" width="60" height="30" as="geometry" />
        </mxCell>
        <mxCell id="epag77RVmhsX1mGDB368-18" value="Observer" style="rounded=0;whiteSpace=wrap;html=1;" vertex="1" parent="1">
          <mxGeometry x="607" y="220" width="180" height="90" as="geometry" />
        </mxCell>
        <mxCell id="epag77RVmhsX1mGDB368-19" value="Observer" style="rounded=0;whiteSpace=wrap;html=1;" vertex="1" parent="1">
          <mxGeometry x="1059" y="220" width="180" height="90" as="geometry" />
        </mxCell>
        <mxCell id="epag77RVmhsX1mGDB368-20" value="Cosmos SDK app" style="rounded=0;whiteSpace=wrap;html=1;" vertex="1" parent="1">
          <mxGeometry x="607" y="350" width="180" height="100" as="geometry" />
        </mxCell>
        <mxCell id="epag77RVmhsX1mGDB368-21" value="" style="endArrow=classic;html=1;rounded=0;entryX=0.75;entryY=0;entryDx=0;entryDy=0;exitX=0.75;exitY=1;exitDx=0;exitDy=0;" edge="1" parent="1">
          <mxGeometry width="50" height="50" relative="1" as="geometry">
            <mxPoint x="741.5" y="310" as="sourcePoint" />
            <mxPoint x="741.5" y="350" as="targetPoint" />
          </mxGeometry>
        </mxCell>
        <mxCell id="epag77RVmhsX1mGDB368-22" value="REST API" style="edgeLabel;html=1;align=center;verticalAlign=middle;resizable=0;points=[];" vertex="1" connectable="0" parent="epag77RVmhsX1mGDB368-21">
          <mxGeometry x="-0.15" y="2" relative="1" as="geometry">
            <mxPoint as="offset" />
          </mxGeometry>
        </mxCell>
        <mxCell id="epag77RVmhsX1mGDB368-23" value="" style="endArrow=classic;html=1;rounded=0;entryX=0.25;entryY=0;entryDx=0;entryDy=0;exitX=0.25;exitY=1;exitDx=0;exitDy=0;" edge="1" parent="1">
          <mxGeometry width="50" height="50" relative="1" as="geometry">
            <mxPoint x="651.5" y="310" as="sourcePoint" />
            <mxPoint x="651.5" y="350" as="targetPoint" />
          </mxGeometry>
        </mxCell>
        <mxCell id="epag77RVmhsX1mGDB368-24" value="RPC" style="edgeLabel;html=1;align=center;verticalAlign=middle;resizable=0;points=[];" vertex="1" connectable="0" parent="epag77RVmhsX1mGDB368-23">
          <mxGeometry x="-0.2" relative="1" as="geometry">
            <mxPoint as="offset" />
          </mxGeometry>
        </mxCell>
        <mxCell id="epag77RVmhsX1mGDB368-25" value="" style="endArrow=none;dashed=1;html=1;dashPattern=1 3;strokeWidth=2;rounded=0;" edge="1" parent="1">
          <mxGeometry width="50" height="50" relative="1" as="geometry">
            <mxPoint x="470" y="330" as="sourcePoint" />
            <mxPoint x="550" y="330" as="targetPoint" />
          </mxGeometry>
        </mxCell>
        <mxCell id="epag77RVmhsX1mGDB368-26" value="omni module" style="rounded=0;whiteSpace=wrap;html=1;" vertex="1" parent="1">
          <mxGeometry x="192.5" y="420" width="105" height="20" as="geometry" />
        </mxCell>
        <mxCell id="epag77RVmhsX1mGDB368-27" value="omni module" style="rounded=0;whiteSpace=wrap;html=1;" vertex="1" parent="1">
          <mxGeometry x="644.5" y="420" width="105" height="20" as="geometry" />
        </mxCell>
        <mxCell id="epag77RVmhsX1mGDB368-28" value="Observe" style="rounded=0;whiteSpace=wrap;html=1;" vertex="1" parent="1">
          <mxGeometry x="160" y="280" width="70" height="20" as="geometry" />
        </mxCell>
        <mxCell id="epag77RVmhsX1mGDB368-29" value="Broadcast" style="rounded=0;whiteSpace=wrap;html=1;" vertex="1" parent="1">
          <mxGeometry x="260" y="280" width="70" height="20" as="geometry" />
        </mxCell>
        <mxCell id="epag77RVmhsX1mGDB368-30" value="Observe" style="rounded=0;whiteSpace=wrap;html=1;" vertex="1" parent="1">
          <mxGeometry x="612" y="280" width="70" height="20" as="geometry" />
        </mxCell>
        <mxCell id="epag77RVmhsX1mGDB368-31" value="Broadcast" style="rounded=0;whiteSpace=wrap;html=1;" vertex="1" parent="1">
          <mxGeometry x="712" y="280" width="70" height="20" as="geometry" />
        </mxCell>
      </root>
    </mxGraphModel>
  </diagram>
</mxfile>
